STARTFONT 2.1
FONT -nokia-nokia-bold-r-normal--10-100-75-75-p-40-iso10646-1
SIZE 10 75 75
FONTBOUNDINGBOX 10 10 0 -2
STARTPROPERTIES 2
FONT_ASCENT 8
FONT_DESCENT 2
ENDPROPERTIES
CHARS 102
STARTCHAR U+0020
ENCODING 32
SWIDTH 400 0
DWIDTH 4
BBX 3 10 0 -2
BITMAP
00
00
00
00
00
00
00
00
00
00
ENDCHAR
STARTCHAR U+0021
ENCODING 33
SWIDTH 300 0
DWIDTH 3
BBX 2 10 0 -2
BITMAP
00
C0
C0
C0
C0
C0
00
C0
00
00
ENDCHAR
STARTCHAR U+0022
ENCODING 34
SWIDTH 400 0
DWIDTH 4
BBX 3 10 0 -2
BITMAP
00
A0
A0
00
00
00
00
00
00
00
ENDCHAR
STARTCHAR U+0023
ENCODING 35
SWIDTH 600 0
DWIDTH 6
BBX 5 10 0 -2
BITMAP
00
50
F8
F8
50
F8
F8
50
00
00
ENDCHAR
STARTCHAR U+0024
ENCODING 36
SWIDTH 600 0
DWIDTH 6
BBX 5 10 0 -2
BITMAP
00
50
78
D0
F0
78
58
F0
50
00
ENDCHAR
STARTCHAR U+0025
ENCODING 37
SWIDTH 700 0
DWIDTH 7
BBX 6 10 0 -2
BITMAP
00
C8
D8
10
30
20
6C
4C
00
00
ENDCHAR
STARTCHAR U+0026
ENCODING 38
SWIDTH 700 0
DWIDTH 7
BBX 6 10 0 -2
BITMAP
00
70
D8
70
F4
DC
DC
74
00
00
ENDCHAR
STARTCHAR U+0027
ENCODING 39
SWIDTH 200 0
DWIDTH 2
BBX 1 10 0 -2
BITMAP
00
80
80
00
00
00
00
00
00
00
ENDCHAR
STARTCHAR U+0028
ENCODING 40
SWIDTH 400 0
DWIDTH 4
BBX 3 10 0 -2
BITMAP
00
20
40
C0
C0
C0
C0
40
20
00
ENDCHAR
STARTCHAR U+0029
ENCODING 41
SWIDTH 400 0
DWIDTH 4
BBX 3 10 0 -2
BITMAP
00
80
40
60
60
60
60
40
80
00
ENDCHAR
STARTCHAR U+002A
ENCODING 42
SWIDTH 600 0
DWIDTH 6
BBX 5 10 0 -2
BITMAP
00
20
A8
F8
70
F8
A8
20
00
00
ENDCHAR
STARTCHAR U+002B
ENCODING 43
SWIDTH 600 0
DWIDTH 6
BBX 5 10 0 -2
BITMAP
00
00
20
20
F8
20
20
00
00
00
ENDCHAR
STARTCHAR U+002C
ENCODING 44
SWIDTH 300 0
DWIDTH 3
BBX 2 10 0 -2
BITMAP
00
00
00
00
00
00
40
C0
80
00
ENDCHAR
STARTCHAR U+002D
ENCODING 45
SWIDTH 500 0
DWIDTH 5
BBX 4 10 0 -2
BITMAP
00
00
00
00
F0
00
00
00
00
00
ENDCHAR
STARTCHAR U+002E
ENCODING 46
SWIDTH 300 0
DWIDTH 3
BBX 2 10 0 -2
BITMAP
00
00
00
00
00
00
C0
C0
00
00
ENDCHAR
STARTCHAR U+002F
ENCODING 47
SWIDTH 400 0
DWIDTH 4
BBX 3 10 0 -2
BITMAP
00
20
20
60
40
C0
80
80
00
00
ENDCHAR
STARTCHAR U+0030
ENCODING 48
SWIDTH 600 0
DWIDTH 6
BBX 5 10 0 -2
BITMAP
00
70
D8
D8
D8
D8
D8
70
00
00
ENDCHAR
STARTCHAR U+0031
ENCODING 49
SWIDTH 600 0
DWIDTH 6
BBX 5 10 0 -2
BITMAP
00
30
70
30
30
30
30
30
00
00
ENDCHAR
STARTCHAR U+0032
ENCODING 50
SWIDTH 600 0
DWIDTH 6
BBX 5 10 0 -2
BITMAP
00
F0
18
18
70
C0
C0
F8
00
00
ENDCHAR
STARTCHAR U+0033
ENCODING 51
SWIDTH 600 0
DWIDTH 6
BBX 5 10 0 -2
BITMAP
00
F0
18
18
70
18
18
F0
00
00
ENDCHAR
STARTCHAR U+0034
ENCODING 52
SWIDTH 600 0
DWIDTH 6
BBX 5 10 0 -2
BITMAP
00
18
38
58
98
F8
18
18
00
00
ENDCHAR
STARTCHAR U+0035
ENCODING 53
SWIDTH 600 0
DWIDTH 6
BBX 5 10 0 -2
BITMAP
00
F0
80
F0
18
18
18
F0
00
00
ENDCHAR
STARTCHAR U+0036
ENCODING 54
SWIDTH 600 0
DWIDTH 6
BBX 5 10 0 -2
BITMAP
00
70
C0
F0
D8
D8
D8
70
00
00
ENDCHAR
STARTCHAR U+0037
ENCODING 55
SWIDTH 600 0
DWIDTH 6
BBX 5 10 0 -2
BITMAP
00
F8
18
30
30
60
60
60
00
00
ENDCHAR
STARTCHAR U+0038
ENCODING 56
SWIDTH 600 0
DWIDTH 6
BBX 5 10 0 -2
BITMAP
00
70
D8
D8
70
D8
D8
70
00
00
ENDCHAR
STARTCHAR U+0039
ENCODING 57
SWIDTH 600 0
DWIDTH 6
BBX 5 10 0 -2
BITMAP
00
70
D8
D8
D8
78
18
70
00
00
ENDCHAR
STARTCHAR U+003A
ENCODING 58
SWIDTH 300 0
DWIDTH 3
BBX 2 10 0 -2
BITMAP
00
00
00
C0
C0
00
C0
C0
00
00
ENDCHAR
STARTCHAR U+003B
ENCODING 59
SWIDTH 300 0
DWIDTH 3
BBX 2 10 0 -2
BITMAP
00
00
00
C0
C0
00
40
C0
80
00
ENDCHAR
STARTCHAR U+003C
ENCODING 60
SWIDTH 500 0
DWIDTH 5
BBX 4 10 0 -2
BITMAP
00
10
30
60
C0
60
30
10
00
00
ENDCHAR
STARTCHAR U+003D
ENCODING 61
SWIDTH 500 0
DWIDTH 5
BBX 4 10 0 -2
BITMAP
00
00
00
00
F0
00
F0
00
00
00
ENDCHAR
STARTCHAR U+003E
ENCODING 62
SWIDTH 500 0
DWIDTH 5
BBX 4 10 0 -2
BITMAP
00
80
C0
60
30
60
C0
80
00
00
ENDCHAR
STARTCHAR U+003F
ENCODING 63
SWIDTH 600 0
DWIDTH 6
BBX 5 10 0 -2
BITMAP
00
F0
18
30
60
60
00
60
00
00
ENDCHAR
STARTCHAR U+0040
ENCODING 64
SWIDTH 700 0
DWIDTH 7
BBX 6 10 0 -2
BITMAP
00
00
78
CC
FC
DC
FC
C0
78
00
ENDCHAR
STARTCHAR U+0041
ENCODING 65
SWIDTH 600 0
DWIDTH 6
BBX 5 10 0 -2
BITMAP
00
70
D8
D8
D8
F8
D8
D8
00
00
ENDCHAR
STARTCHAR U+0042
ENCODING 66
SWIDTH 600 0
DWIDTH 6
BBX 5 10 0 -2
BITMAP
00
F0
D8
F0
D8
D8
D8
F0
00
00
ENDCHAR
STARTCHAR U+0043
ENCODING 67
SWIDTH 600 0
DWIDTH 6
BBX 5 10 0 -2
BITMAP
00
78
C0
C0
C0
C0
C0
78
00
00
ENDCHAR
STARTCHAR U+0044
ENCODING 68
SWIDTH 600 0
DWIDTH 6
BBX 5 10 0 -2
BITMAP
00
F0
D8
D8
D8
D8
D8
F0
00
00
ENDCHAR
STARTCHAR U+0045
ENCODING 69
SWIDTH 600 0
DWIDTH 6
BBX 5 10 0 -2
BITMAP
00
F8
C0
F0
C0
C0
C0
F8
00
00
ENDCHAR
STARTCHAR U+0046
ENCODING 70
SWIDTH 600 0
DWIDTH 6
BBX 5 10 0 -2
BITMAP
00
F8
C0
F0
C0
C0
C0
C0
00
00
ENDCHAR
STARTCHAR U+0047
ENCODING 71
SWIDTH 600 0
DWIDTH 6
BBX 5 10 0 -2
BITMAP
00
70
C0
C0
D8
D8
D8
78
00
00
ENDCHAR
STARTCHAR U+0048
ENCODING 72
SWIDTH 600 0
DWIDTH 6
BBX 5 10 0 -2
BITMAP
00
D8
D8
F8
D8
D8
D8
D8
00
00
ENDCHAR
STARTCHAR U+0049
ENCODING 73
SWIDTH 300 0
DWIDTH 3
BBX 2 10 0 -2
BITMAP
00
C0
C0
C0
C0
C0
C0
C0
00
00
ENDCHAR
STARTCHAR U+004A
ENCODING 74
SWIDTH 500 0
DWIDTH 5
BBX 4 10 0 -2
BITMAP
00
30
30
30
30
30
30
E0
00
00
ENDCHAR
STARTCHAR U+004B
ENCODING 75
SWIDTH 700 0
DWIDTH 7
BBX 6 10 0 -2
BITMAP
00
CC
D8
F0
E0
F0
D8
CC
00
00
ENDCHAR
STARTCHAR U+004C
ENCODING 76
SWIDTH 500 0
DWIDTH 5
BBX 4 10 0 -2
BITMAP
00
C0
C0
C0
C0
C0
C0
F0
00
00
ENDCHAR
STARTCHAR U+004D
ENCODING 77
SWIDTH 800 0
DWIDTH 8
BBX 7 10 0 -2
BITMAP
00
82
C6
EE
FE
D6
C6
C6
00
00
ENDCHAR
STARTCHAR U+004E
ENCODING 78
SWIDTH 700 0
DWIDTH 7
BBX 6 10 0 -2
BITMAP
00
8C
CC
EC
FC
DC
CC
C4
00
00
ENDCHAR
STARTCHAR U+004F
ENCODING 79
SWIDTH 700 0
DWIDTH 7
BBX 6 10 0 -2
BITMAP
00
78
CC
CC
CC
CC
CC
78
00
00
ENDCHAR
STARTCHAR U+0050
ENCODING 80
SWIDTH 600 0
DWIDTH 6
BBX 5 10 0 -2
BITMAP
00
F0
D8
D8
D8
F0
C0
C0
00
00
ENDCHAR
STARTCHAR U+0051
ENCODING 81
SWIDTH 700 0
DWIDTH 7
BBX 6 10 0 -2
BITMAP
00
78
CC
CC
CC
CC
DC
78
0C
00
ENDCHAR
STARTCHAR U+0052
ENCODING 82
SWIDTH 600 0
DWIDTH 6
BBX 5 10 0 -2
BITMAP
00
F0
D8
D8
D8
F0
D0
D8
00
00
ENDCHAR
STARTCHAR U+0053
ENCODING 83
SWIDTH 500 0
DWIDTH 5
BBX 4 10 0 -2
BITMAP
00
70
C0
C0
60
30
30
E0
00
00
ENDCHAR
STARTCHAR U+0054
ENCODING 84
SWIDTH 700 0
DWIDTH 7
BBX 6 10 0 -2
BITMAP
00
FC
30
30
30
30
30
30
00
00
ENDCHAR
STARTCHAR U+0055
ENCODING 85
SWIDTH 600 0
DWIDTH 6
BBX 5 10 0 -2
BITMAP
00
D8
D8
D8
D8
D8
D8
70
00
00
ENDCHAR
STARTCHAR U+0056
ENCODING 86
SWIDTH 700 0
DWIDTH 7
BBX 6 10 0 -2
BITMAP
00
CC
CC
CC
78
78
30
30
00
00
ENDCHAR
STARTCHAR U+0057
ENCODING 87
SWIDTH 800 0
DWIDTH 8
BBX 7 10 0 -2
BITMAP
00
C6
C6
D6
FE
7C
7C
6C
00
00
ENDCHAR
STARTCHAR U+0058
ENCODING 88
SWIDTH 700 0
DWIDTH 7
BBX 6 10 0 -2
BITMAP
00
CC
CC
78
30
78
CC
CC
00
00
ENDCHAR
STARTCHAR U+0059
ENCODING 89
SWIDTH 700 0
DWIDTH 7
BBX 6 10 0 -2
BITMAP
00
CC
CC
78
30
30
30
30
00
00
ENDCHAR
STARTCHAR U+005A
ENCODING 90
SWIDTH 600 0
DWIDTH 6
BBX 5 10 0 -2
BITMAP
00
F8
18
38
70
E0
C0
F8
00
00
ENDCHAR
STARTCHAR U+005B
ENCODING 91
SWIDTH 400 0
DWIDTH 4
BBX 3 10 0 -2
BITMAP
00
E0
C0
C0
C0
C0
C0
C0
E0
00
ENDCHAR
STARTCHAR U+005C
ENCODING 92
SWIDTH 400 0
DWIDTH 4
BBX 3 10 0 -2
BITMAP
00
80
80
C0
40
60
20
20
00
00
ENDCHAR
STARTCHAR U+005D
ENCODING 93
SWIDTH 400 0
DWIDTH 4
BBX 3 10 0 -2
BITMAP
00
E0
60
60
60
60
60
60
E0
00
ENDCHAR
STARTCHAR U+005E
ENCODING 94
SWIDTH 400 0
DWIDTH 4
BBX 3 10 0 -2
BITMAP
00
40
E0
A0
00
00
00
00
00
00
ENDCHAR
STARTCHAR U+005F
ENCODING 95
SWIDTH 500 0
DWIDTH 5
BBX 5 10 0 -2
BITMAP
00
00
00
00
00
00
00
00
F8
00
ENDCHAR
STARTCHAR U+0060
ENCODING 96
SWIDTH 300 0
DWIDTH 3
BBX 2 10 0 -2
BITMAP
00
80
40
00
00
00
00
00
00
00
ENDCHAR
STARTCHAR U+0061
ENCODING 97
SWIDTH 600 0
DWIDTH 6
BBX 5 10 0 -2
BITMAP
00
00
00
70
18
78
D8
78
00
00
ENDCHAR
STARTCHAR U+0062
ENCODING 98
SWIDTH 600 0
DWIDTH 6
BBX 5 10 0 -2
BITMAP
00
C0
C0
F0
D8
D8
D8
F0
00
00
ENDCHAR
STARTCHAR U+0063
ENCODING 99
SWIDTH 500 0
DWIDTH 5
BBX 4 10 0 -2
BITMAP
00
00
00
70
C0
C0
C0
70
00
00
ENDCHAR
STARTCHAR U+0064
ENCODING 100
SWIDTH 600 0
DWIDTH 6
BBX 5 10 0 -2
BITMAP
00
18
18
78
D8
D8
D8
78
00
00
ENDCHAR
STARTCHAR U+0065
ENCODING 101
SWIDTH 600 0
DWIDTH 6
BBX 5 10 0 -2
BITMAP
00
00
00
70
D8
F8
C0
78
00
00
ENDCHAR
STARTCHAR U+0066
ENCODING 102
SWIDTH 400 0
DWIDTH 4
BBX 3 10 0 -2
BITMAP
00
60
C0
E0
C0
C0
C0
C0
00
00
ENDCHAR
STARTCHAR U+0067
ENCODING 103
SWIDTH 600 0
DWIDTH 6
BBX 5 10 0 -2
BITMAP
00
00
00
78
D8
D8
78
18
70
00
ENDCHAR
STARTCHAR U+0068
ENCODING 104
SWIDTH 600 0
DWIDTH 6
BBX 5 10 0 -2
BITMAP
00
C0
C0
F0
D8
D8
D8
D8
00
00
ENDCHAR
STARTCHAR U+0069
ENCODING 105
SWIDTH 300 0
DWIDTH 3
BBX 2 10 0 -2
BITMAP
00
C0
00
C0
C0
C0
C0
C0
00
00
ENDCHAR
STARTCHAR U+006A
ENCODING 106
SWIDTH 400 0
DWIDTH 4
BBX 3 10 0 -2
BITMAP
00
60
00
60
60
60
60
60
C0
00
ENDCHAR
STARTCHAR U+006B
ENCODING 107
SWIDTH 600 0
DWIDTH 6
BBX 5 10 0 -2
BITMAP
00
C0
C0
D8
F0
E0
F0
D8
00
00
ENDCHAR
STARTCHAR U+006C
ENCODING 108
SWIDTH 300 0
DWIDTH 3
BBX 2 10 0 -2
BITMAP
00
C0
C0
C0
C0
C0
C0
C0
00
00
ENDCHAR
STARTCHAR U+006D
ENCODING 109
SWIDTH 900 0
DWIDTH 9
BBX 8 10 0 -2
BITMAP
00
00
00
FE
DB
DB
DB
DB
00
00
ENDCHAR
STARTCHAR U+006E
ENCODING 110
SWIDTH 600 0
DWIDTH 6
BBX 5 10 0 -2
BITMAP
00
00
00
F0
D8
D8
D8
D8
00
00
ENDCHAR
STARTCHAR U+006F
ENCODING 111
SWIDTH 600 0
DWIDTH 6
BBX 5 10 0 -2
BITMAP
00
00
00
70
D8
D8
D8
70
00
00
ENDCHAR
STARTCHAR U+0070
ENCODING 112
SWIDTH 600 0
DWIDTH 6
BBX 5 10 0 -2
BITMAP
00
00
00
F0
D8
D8
F0
C0
C0
00
ENDCHAR
STARTCHAR U+0071
ENCODING 113
SWIDTH 600 0
DWIDTH 6
BBX 5 10 0 -2
BITMAP
00
00
00
78
D8
D8
78
18
18
00
ENDCHAR
STARTCHAR U+0072
ENCODING 114
SWIDTH 500 0
DWIDTH 5
BBX 4 10 0 -2
BITMAP
00
00
00
D0
F0
C0
C0
C0
00
00
ENDCHAR
STARTCHAR U+0073
ENCODING 115
SWIDTH 500 0
DWIDTH 5
BBX 4 10 0 -2
BITMAP
00
00
00
70
C0
F0
30
E0
00
00
ENDCHAR
STARTCHAR U+0074
ENCODING 116
SWIDTH 400 0
DWIDTH 4
BBX 3 10 0 -2
BITMAP
00
C0
C0
E0
C0
C0
C0
60
00
00
ENDCHAR
STARTCHAR U+0075
ENCODING 117
SWIDTH 600 0
DWIDTH 6
BBX 5 10 0 -2
BITMAP
00
00
00
D8
D8
D8
D8
78
00
00
ENDCHAR
STARTCHAR U+0076
ENCODING 118
SWIDTH 600 0
DWIDTH 6
BBX 5 10 0 -2
BITMAP
00
00
00
D8
D8
70
70
20
00
00
ENDCHAR
STARTCHAR U+0077
ENCODING 119
SWIDTH 800 0
DWIDTH 8
BBX 7 10 0 -2
BITMAP
00
00
00
C6
C6
D6
7C
6C
00
00
ENDCHAR
STARTCHAR U+0078
ENCODING 120
SWIDTH 600 0
DWIDTH 6
BBX 5 10 0 -2
BITMAP
00
00
00
D8
D8
70
D8
D8
00
00
ENDCHAR
STARTCHAR U+0079
ENCODING 121
SWIDTH 600 0
DWIDTH 6
BBX 5 10 0 -2
BITMAP
00
00
00
D8
D8
D8
78
18
70
00
ENDCHAR
STARTCHAR U+007A
ENCODING 122
SWIDTH 600 0
DWIDTH 6
BBX 5 10 0 -2
BITMAP
00
00
00
F8
30
60
C0
F8
00
00
ENDCHAR
STARTCHAR U+007B
ENCODING 123
SWIDTH 400 0
DWIDTH 4
BBX 3 10 0 -2
BITMAP
00
20
40
C0
C0
C0
C0
40
20
00
ENDCHAR
STARTCHAR U+007C
ENCODING 124
SWIDTH 400 0
DWIDTH 4
BBX 3 10 0 -2
BITMAP
00
80
40
60
60
60
60
40
80
00
ENDCHAR
STARTCHAR U+007D
ENCODING 125
SWIDTH 300 0
DWIDTH 3
BBX 2 10 0 -2
BITMAP
00
C0
C0
C0
C0
C0
C0
C0
C0
00
ENDCHAR
STARTCHAR U+007E
ENCODING 126
SWIDTH 700 0
DWIDTH 7
BBX 6 10 0 -2
BITMAP
00
00
00
00
64
FC
98
00
00
00
ENDCHAR
STARTCHAR U+20AC
ENCODING 8364
SWIDTH 700 0
DWIDTH 7
BBX 6 10 0 -2
BITMAP
00
00
38
44
F8
F0
44
38
00
00
ENDCHAR
STARTCHAR U+00A3
ENCODING 163
SWIDTH 600 0
DWIDTH 6
BBX 5 10 0 -2
BITMAP
00
38
60
60
60
F0
60
F8
00
00
ENDCHAR
STARTCHAR U+00A5
ENCODING 165
SWIDTH 700 0
DWIDTH 7
BBX 6 10 0 -2
BITMAP
00
CC
78
FC
30
FC
30
30
00
00
ENDCHAR
STARTCHAR U+00A4
ENCODING 164
SWIDTH 600 0
DWIDTH 6
BBX 5 10 0 -2
BITMAP
00
00
88
70
D8
D8
70
88
00
00
ENDCHAR
STARTCHAR U+00BF
ENCODING 191
SWIDTH 600 0
DWIDTH 6
BBX 5 10 0 -2
BITMAP
00
30
00
30
30
60
C0
78
00
00
ENDCHAR
STARTCHAR U+00A1
ENCODING 161
SWIDTH 300 0
DWIDTH 3
BBX 2 10 0 -2
BITMAP
00
C0
00
C0
C0
C0
C0
C0
00
00
ENDCHAR
STARTCHAR U+00A7
ENCODING 167
SWIDTH 500 0
DWIDTH 5
BBX 4 10 0 -2
BITMAP
00
60
D0
E0
B0
D0
70
B0
60
00
ENDCHAR
ENDFONT
